<?xml version="1.0" standalone="no"?>
<!DOCTYPE svg PUBLIC "-//W3C//DTD SVG 20010904//EN"
 "http://www.w3.org/TR/2001/REC-SVG-20010904/DTD/svg10.dtd">
<svg version="1.0" xmlns="http://www.w3.org/2000/svg"
 width="944.000000pt" height="944.000000pt" viewBox="0 0 944.000000 944.000000"
 preserveAspectRatio="xMidYMid meet">
<metadata>
Created by potrace 1.14, written by Peter Selinger 2001-2017
</metadata>
<g transform="translate(0.000000,944.000000) scale(0.100000,-0.100000)"
fill="#000000" stroke="none">
<path d="M6378 8525 c-1 -1 -34 -6 -73 -10 -38 -3 -88 -10 -110 -15 -22 -5
-56 -11 -76 -14 -20 -3 -49 -10 -65 -16 -16 -6 -29 -11 -29 -10 0 5 -100 -25
-170 -52 -83 -31 -286 -126 -295 -138 -3 -3 -12 -9 -20 -12 -22 -9 -190 -127
-246 -173 -146 -121 -316 -320 -419 -490 -111 -183 -206 -434 -241 -635 -3
-14 -7 -32 -9 -40 -19 -66 -27 -417 -13 -535 10 -78 26 -172 34 -197 6 -20 4
-21 -102 -14 -60 3 -125 8 -144 10 -19 3 -62 7 -95 11 -33 3 -87 10 -120 15
-33 5 -80 12 -105 15 -25 4 -92 15 -150 26 -58 11 -118 22 -135 25 -43 8 -297
71 -380 95 -85 25 -362 116 -390 128 -11 5 -58 24 -105 42 -47 18 -113 45
-148 61 -34 15 -65 28 -67 28 -11 0 -288 137 -390 193 -171 93 -422 251 -588
371 -84 60 -154 111 -157 115 -3 3 -39 33 -80 66 -239 190 -559 504 -775 763
-15 17 -31 30 -35 27 -15 -9 -106 -206 -143 -310 -55 -152 -89 -302 -104 -460
-13 -130 -7 -367 12 -470 3 -16 10 -57 16 -90 21 -125 81 -305 149 -450 94
-203 211 -366 380 -535 100 -101 149 -142 260 -223 25 -17 23 -18 -65 -12
-230 13 -522 96 -723 205 l-55 30 6 -123 c10 -200 57 -439 107 -552 5 -11 19
-45 30 -75 128 -336 404 -671 725 -883 95 -63 338 -187 365 -187 9 0 20 -4 25
-9 10 -9 181 -61 255 -77 l35 -7 -35 -9 c-217 -52 -517 -70 -715 -43 -55 8
-105 14 -112 15 -26 0 96 -274 187 -422 98 -156 253 -337 395 -458 155 -132
370 -257 575 -333 110 -41 316 -93 410 -103 36 -4 76 -8 90 -9 14 -2 48 -4 75
-4 l50 -1 -35 -31 c-53 -47 -260 -187 -387 -262 -202 -119 -430 -226 -666
-311 -90 -33 -348 -109 -407 -120 -14 -3 -70 -14 -125 -26 -55 -11 -116 -23
-135 -26 -19 -2 -44 -6 -55 -9 -11 -2 -49 -7 -85 -10 -36 -4 -71 -8 -78 -11
-72 -23 -682 -22 -819 2 -47 8 -41 -7 19 -41 28 -16 68 -40 87 -52 93 -57 228
-129 376 -202 218 -107 301 -143 495 -216 448 -168 901 -274 1360 -320 30 -3
73 -8 95 -10 67 -7 344 -19 450 -19 126 1 472 13 505 18 14 3 57 7 95 10 39 4
86 9 105 11 19 2 58 7 85 10 28 3 61 8 75 10 14 3 43 7 65 10 22 2 51 7 65 10
25 5 120 22 175 31 17 3 95 21 175 40 80 20 155 38 167 40 24 5 271 79 313 94
400 143 627 245 955 430 75 42 310 194 400 258 351 251 701 572 954 878 41 49
80 94 86 99 6 6 22 26 35 45 13 19 27 37 30 40 15 12 187 250 261 363 92 139
219 351 219 366 0 5 4 11 8 13 9 3 179 340 226 448 162 368 277 720 365 1115
16 72 32 149 35 173 3 24 7 46 10 50 2 4 7 30 11 57 3 28 12 95 20 150 7 55
16 129 20 165 3 36 8 85 10 110 13 116 16 213 17 438 l1 243 61 47 c221 168
444 379 625 592 85 99 264 340 258 346 -2 2 -58 -18 -124 -45 -271 -110 -656
-212 -893 -236 l-65 -7 90 62 c222 152 415 356 555 585 34 56 139 259 139 268
0 1 2 9 5 17 3 8 15 41 25 72 l20 57 -40 -24 c-47 -30 -286 -153 -349 -179
-25 -11 -67 -29 -95 -41 -99 -44 -349 -131 -440 -154 -22 -5 -67 -17 -100 -26
-33 -8 -71 -18 -85 -20 -43 -9 -74 -16 -92 -21 -10 -3 -32 10 -56 33 -105 100
-145 134 -199 174 -32 24 -60 46 -63 49 -10 12 -138 88 -210 126 -205 109
-404 173 -640 206 -69 9 -394 20 -402 13z"/>
</g>
</svg>
